<?xml version="1.0" encoding="UTF-8"?>
<svg xmlns="http://www.w3.org/2000/svg" viewBox="0 0 300 300"><path fill="#05164d" d="M244.1 80.9c-3.8-3.7-8.8-5.9-14.1-5.9H70c-5.3 0-10.4 2.1-14.1 5.9C52.1 84.6 50 89.7 50 95v100c0 5.3 2.1 10.4 5.9 14.1S64.7 215 70 215h20v35l72.5-35H230c5.3 0 10.4-2.1 14.1-5.9s5.9-8.8 5.9-14.1V95c0-5.3-2.1-10.4-5.9-14.1zm-87 102h-19v-19.1h19v19.1zm10.2-37.9l-5.4 2c-5.1 1.9-6.6 3.5-6.6 6.8v2.9h-15.5v-5.6c0-8.4 2.7-13.2 9.8-15.6l5-1.7c4.9-1.7 6-3.9 6-7.9 0-5.3-3.5-8.5-10.3-8.5-7.9 0-11 2.5-11.4 9.9h-17.7c.4-14.7 7.9-25.3 29.2-25.3 17.4 0 28.4 8 28.4 24.3-.1 9.6-4.4 16-11.5 18.7z" style="fill: #dcdcdc;"/></svg>
